%TF.GenerationSoftware,KiCad,Pcbnew,8.0.3*%
%TF.CreationDate,2025-10-30T11:00:03+03:00*%
%TF.ProjectId,yandex-rover,79616e64-6578-42d7-926f-7665722e6b69,rev?*%
%TF.SameCoordinates,Original*%
%TF.FileFunction,Paste,Top*%
%TF.FilePolarity,Positive*%
%FSLAX46Y46*%
G04 Gerber Fmt 4.6, Leading zero omitted, Abs format (unit mm)*
G04 Created by KiCad (PCBNEW 8.0.3) date 2025-10-30 11:00:03*
%MOMM*%
%LPD*%
G01*
G04 APERTURE LIST*
G04 Aperture macros list*
%AMRoundRect*
0 Rectangle with rounded corners*
0 $1 Rounding radius*
0 $2 $3 $4 $5 $6 $7 $8 $9 X,Y pos of 4 corners*
0 Add a 4 corners polygon primitive as box body*
4,1,4,$2,$3,$4,$5,$6,$7,$8,$9,$2,$3,0*
0 Add four circle primitives for the rounded corners*
1,1,$1+$1,$2,$3*
1,1,$1+$1,$4,$5*
1,1,$1+$1,$6,$7*
1,1,$1+$1,$8,$9*
0 Add four rect primitives between the rounded corners*
20,1,$1+$1,$2,$3,$4,$5,0*
20,1,$1+$1,$4,$5,$6,$7,0*
20,1,$1+$1,$6,$7,$8,$9,0*
20,1,$1+$1,$8,$9,$2,$3,0*%
G04 Aperture macros list end*
%ADD10RoundRect,0.075000X-0.700000X-0.075000X0.700000X-0.075000X0.700000X0.075000X-0.700000X0.075000X0*%
%ADD11RoundRect,0.075000X-0.075000X-0.700000X0.075000X-0.700000X0.075000X0.700000X-0.075000X0.700000X0*%
%ADD12RoundRect,0.375000X-0.375000X0.625000X-0.375000X-0.625000X0.375000X-0.625000X0.375000X0.625000X0*%
%ADD13RoundRect,0.500000X-1.400000X0.500000X-1.400000X-0.500000X1.400000X-0.500000X1.400000X0.500000X0*%
%ADD14R,0.900000X0.900000*%
%ADD15R,0.900000X1.500000*%
%ADD16R,1.500000X0.900000*%
%ADD17RoundRect,0.175000X0.325000X-0.175000X0.325000X0.175000X-0.325000X0.175000X-0.325000X-0.175000X0*%
%ADD18RoundRect,0.150000X0.150000X-0.200000X0.150000X0.200000X-0.150000X0.200000X-0.150000X-0.200000X0*%
%ADD19RoundRect,0.250000X-0.250000X-3.150000X0.250000X-3.150000X0.250000X3.150000X-0.250000X3.150000X0*%
%ADD20R,1.380000X0.450000*%
%ADD21R,1.300000X1.650000*%
%ADD22R,1.550000X1.425000*%
%ADD23R,1.900000X1.800000*%
%ADD24R,1.900000X1.000000*%
G04 APERTURE END LIST*
D10*
%TO.C,U2*%
X153725000Y-61450000D03*
X153725000Y-61950000D03*
X153725000Y-62450000D03*
X153725000Y-62950000D03*
X153725000Y-63450000D03*
X153725000Y-63950000D03*
X153725000Y-64450000D03*
X153725000Y-64950000D03*
X153725000Y-65450000D03*
X153725000Y-65950000D03*
X153725000Y-66450000D03*
X153725000Y-66950000D03*
X153725000Y-67450000D03*
X153725000Y-67950000D03*
X153725000Y-68450000D03*
X153725000Y-68950000D03*
D11*
X155650000Y-70875000D03*
X156150000Y-70875000D03*
X156650000Y-70875000D03*
X157150000Y-70875000D03*
X157650000Y-70875000D03*
X158150000Y-70875000D03*
X158650000Y-70875000D03*
X159150000Y-70875000D03*
X159650000Y-70875000D03*
X160150000Y-70875000D03*
X160650000Y-70875000D03*
X161150000Y-70875000D03*
X161650000Y-70875000D03*
X162150000Y-70875000D03*
X162650000Y-70875000D03*
X163150000Y-70875000D03*
D10*
X165075000Y-68950000D03*
X165075000Y-68450000D03*
X165075000Y-67950000D03*
X165075000Y-67450000D03*
X165075000Y-66950000D03*
X165075000Y-66450000D03*
X165075000Y-65950000D03*
X165075000Y-65450000D03*
X165075000Y-64950000D03*
X165075000Y-64450000D03*
X165075000Y-63950000D03*
X165075000Y-63450000D03*
X165075000Y-62950000D03*
X165075000Y-62450000D03*
X165075000Y-61950000D03*
X165075000Y-61450000D03*
D11*
X163150000Y-59525000D03*
X162650000Y-59525000D03*
X162150000Y-59525000D03*
X161650000Y-59525000D03*
X161150000Y-59525000D03*
X160650000Y-59525000D03*
X160150000Y-59525000D03*
X159650000Y-59525000D03*
X159150000Y-59525000D03*
X158650000Y-59525000D03*
X158150000Y-59525000D03*
X157650000Y-59525000D03*
X157150000Y-59525000D03*
X156650000Y-59525000D03*
X156150000Y-59525000D03*
X155650000Y-59525000D03*
%TD*%
D12*
%TO.C,U3*%
X126300000Y-56850000D03*
X124000000Y-56850000D03*
D13*
X124000000Y-63150000D03*
D12*
X121700000Y-56850000D03*
%TD*%
D14*
%TO.C,U4*%
X186900000Y-68800000D03*
X185500000Y-68800000D03*
X184100000Y-68800000D03*
X186900000Y-70200000D03*
X185500000Y-70200000D03*
X184100000Y-70200000D03*
X186900000Y-71600000D03*
X185500000Y-71600000D03*
X184100000Y-71600000D03*
D15*
X193220000Y-62950000D03*
X191950000Y-62950000D03*
X190680000Y-62950000D03*
X189410000Y-62950000D03*
X188140000Y-62950000D03*
X186870000Y-62950000D03*
X185600000Y-62950000D03*
X184330000Y-62950000D03*
X183060000Y-62950000D03*
X181790000Y-62950000D03*
X180520000Y-62950000D03*
X179250000Y-62950000D03*
X177980000Y-62950000D03*
X176710000Y-62950000D03*
D16*
X175460000Y-64715000D03*
X175460000Y-65985000D03*
X175460000Y-67255000D03*
X175460000Y-68525000D03*
X175460000Y-69795000D03*
X175460000Y-71065000D03*
X175460000Y-72335000D03*
X175460000Y-73605000D03*
X175460000Y-74875000D03*
X175460000Y-76145000D03*
X175460000Y-77415000D03*
X175460000Y-78685000D03*
D15*
X176710000Y-80450000D03*
X177980000Y-80450000D03*
X179250000Y-80450000D03*
X180520000Y-80450000D03*
X181790000Y-80450000D03*
X183060000Y-80450000D03*
X184330000Y-80450000D03*
X185600000Y-80450000D03*
X186870000Y-80450000D03*
X188140000Y-80450000D03*
X189410000Y-80450000D03*
X190680000Y-80450000D03*
X191950000Y-80450000D03*
X193220000Y-80450000D03*
%TD*%
D17*
%TO.C,U1*%
X203050000Y-36850000D03*
D18*
X204750000Y-36850000D03*
X204750000Y-34850000D03*
X202850000Y-34850000D03*
%TD*%
D19*
%TO.C,SW2*%
X112900000Y-37400000D03*
X115900000Y-37400000D03*
X118900000Y-37400000D03*
%TD*%
D20*
%TO.C,J7*%
X105035000Y-59300000D03*
X105035000Y-59950000D03*
X105035000Y-60600000D03*
X105035000Y-61250000D03*
X105035000Y-61900000D03*
D21*
X102375000Y-57225000D03*
D22*
X104950000Y-58112500D03*
D23*
X102375000Y-59450000D03*
D24*
X102375000Y-62150000D03*
D22*
X104950000Y-63087500D03*
D21*
X102375000Y-63975000D03*
%TD*%
M02*
