%TF.GenerationSoftware,KiCad,Pcbnew,8.0.3*%
%TF.CreationDate,2025-10-31T10:35:31+03:00*%
%TF.ProjectId,yandex-rover,79616e64-6578-42d7-926f-7665722e6b69,rev?*%
%TF.SameCoordinates,Original*%
%TF.FileFunction,Drillmap*%
%TF.FilePolarity,Positive*%
%FSLAX45Y45*%
G04 Gerber Fmt 4.5, Leading zero omitted, Abs format (unit mm)*
G04 Created by KiCad (PCBNEW 8.0.3) date 2025-10-31 10:35:31*
%MOMM*%
%LPD*%
G01*
G04 APERTURE LIST*
%ADD10C,0.050000*%
%ADD11C,0.200000*%
G04 APERTURE END LIST*
D10*
X10090000Y-2870000D02*
X21640000Y-2870000D01*
X21640000Y-9600000D01*
X10090000Y-9600000D01*
X10090000Y-2870000D01*
D11*
X10348277Y-9913984D02*
X10348277Y-9713984D01*
X10348277Y-9713984D02*
X10395896Y-9713984D01*
X10395896Y-9713984D02*
X10424467Y-9723508D01*
X10424467Y-9723508D02*
X10443515Y-9742555D01*
X10443515Y-9742555D02*
X10453039Y-9761603D01*
X10453039Y-9761603D02*
X10462563Y-9799698D01*
X10462563Y-9799698D02*
X10462563Y-9828270D01*
X10462563Y-9828270D02*
X10453039Y-9866365D01*
X10453039Y-9866365D02*
X10443515Y-9885412D01*
X10443515Y-9885412D02*
X10424467Y-9904460D01*
X10424467Y-9904460D02*
X10395896Y-9913984D01*
X10395896Y-9913984D02*
X10348277Y-9913984D01*
X10548277Y-9913984D02*
X10548277Y-9780650D01*
X10548277Y-9818746D02*
X10557801Y-9799698D01*
X10557801Y-9799698D02*
X10567324Y-9790174D01*
X10567324Y-9790174D02*
X10586372Y-9780650D01*
X10586372Y-9780650D02*
X10605420Y-9780650D01*
X10672086Y-9913984D02*
X10672086Y-9780650D01*
X10672086Y-9713984D02*
X10662563Y-9723508D01*
X10662563Y-9723508D02*
X10672086Y-9733031D01*
X10672086Y-9733031D02*
X10681610Y-9723508D01*
X10681610Y-9723508D02*
X10672086Y-9713984D01*
X10672086Y-9713984D02*
X10672086Y-9733031D01*
X10795896Y-9913984D02*
X10776848Y-9904460D01*
X10776848Y-9904460D02*
X10767324Y-9885412D01*
X10767324Y-9885412D02*
X10767324Y-9713984D01*
X10900658Y-9913984D02*
X10881610Y-9904460D01*
X10881610Y-9904460D02*
X10872086Y-9885412D01*
X10872086Y-9885412D02*
X10872086Y-9713984D01*
X11129229Y-9913984D02*
X11129229Y-9713984D01*
X11129229Y-9713984D02*
X11195896Y-9856841D01*
X11195896Y-9856841D02*
X11262562Y-9713984D01*
X11262562Y-9713984D02*
X11262562Y-9913984D01*
X11443515Y-9913984D02*
X11443515Y-9809222D01*
X11443515Y-9809222D02*
X11433991Y-9790174D01*
X11433991Y-9790174D02*
X11414943Y-9780650D01*
X11414943Y-9780650D02*
X11376848Y-9780650D01*
X11376848Y-9780650D02*
X11357801Y-9790174D01*
X11443515Y-9904460D02*
X11424467Y-9913984D01*
X11424467Y-9913984D02*
X11376848Y-9913984D01*
X11376848Y-9913984D02*
X11357801Y-9904460D01*
X11357801Y-9904460D02*
X11348277Y-9885412D01*
X11348277Y-9885412D02*
X11348277Y-9866365D01*
X11348277Y-9866365D02*
X11357801Y-9847317D01*
X11357801Y-9847317D02*
X11376848Y-9837793D01*
X11376848Y-9837793D02*
X11424467Y-9837793D01*
X11424467Y-9837793D02*
X11443515Y-9828270D01*
X11538753Y-9780650D02*
X11538753Y-9980650D01*
X11538753Y-9790174D02*
X11557801Y-9780650D01*
X11557801Y-9780650D02*
X11595896Y-9780650D01*
X11595896Y-9780650D02*
X11614943Y-9790174D01*
X11614943Y-9790174D02*
X11624467Y-9799698D01*
X11624467Y-9799698D02*
X11633991Y-9818746D01*
X11633991Y-9818746D02*
X11633991Y-9875889D01*
X11633991Y-9875889D02*
X11624467Y-9894936D01*
X11624467Y-9894936D02*
X11614943Y-9904460D01*
X11614943Y-9904460D02*
X11595896Y-9913984D01*
X11595896Y-9913984D02*
X11557801Y-9913984D01*
X11557801Y-9913984D02*
X11538753Y-9904460D01*
X11719705Y-9894936D02*
X11729229Y-9904460D01*
X11729229Y-9904460D02*
X11719705Y-9913984D01*
X11719705Y-9913984D02*
X11710182Y-9904460D01*
X11710182Y-9904460D02*
X11719705Y-9894936D01*
X11719705Y-9894936D02*
X11719705Y-9913984D01*
X11719705Y-9790174D02*
X11729229Y-9799698D01*
X11729229Y-9799698D02*
X11719705Y-9809222D01*
X11719705Y-9809222D02*
X11710182Y-9799698D01*
X11710182Y-9799698D02*
X11719705Y-9790174D01*
X11719705Y-9790174D02*
X11719705Y-9809222D01*
M02*
