%TF.GenerationSoftware,KiCad,Pcbnew,8.0.3*%
%TF.CreationDate,2025-10-30T11:00:03+03:00*%
%TF.ProjectId,yandex-rover,79616e64-6578-42d7-926f-7665722e6b69,rev?*%
%TF.SameCoordinates,Original*%
%TF.FileFunction,Soldermask,Top*%
%TF.FilePolarity,Negative*%
%FSLAX46Y46*%
G04 Gerber Fmt 4.6, Leading zero omitted, Abs format (unit mm)*
G04 Created by KiCad (PCBNEW 8.0.3) date 2025-10-30 11:00:03*
%MOMM*%
%LPD*%
G01*
G04 APERTURE LIST*
G04 Aperture macros list*
%AMRoundRect*
0 Rectangle with rounded corners*
0 $1 Rounding radius*
0 $2 $3 $4 $5 $6 $7 $8 $9 X,Y pos of 4 corners*
0 Add a 4 corners polygon primitive as box body*
4,1,4,$2,$3,$4,$5,$6,$7,$8,$9,$2,$3,0*
0 Add four circle primitives for the rounded corners*
1,1,$1+$1,$2,$3*
1,1,$1+$1,$4,$5*
1,1,$1+$1,$6,$7*
1,1,$1+$1,$8,$9*
0 Add four rect primitives between the rounded corners*
20,1,$1+$1,$2,$3,$4,$5,0*
20,1,$1+$1,$4,$5,$6,$7,0*
20,1,$1+$1,$6,$7,$8,$9,0*
20,1,$1+$1,$8,$9,$2,$3,0*%
G04 Aperture macros list end*
%ADD10C,2.400000*%
%ADD11O,2.400000X2.400000*%
%ADD12R,1.800000X1.800000*%
%ADD13C,1.800000*%
%ADD14R,1.700000X1.700000*%
%ADD15O,1.700000X1.700000*%
%ADD16C,1.200000*%
%ADD17R,1.200000X1.200000*%
%ADD18RoundRect,0.075000X-0.700000X-0.075000X0.700000X-0.075000X0.700000X0.075000X-0.700000X0.075000X0*%
%ADD19RoundRect,0.075000X-0.075000X-0.700000X0.075000X-0.700000X0.075000X0.700000X-0.075000X0.700000X0*%
%ADD20RoundRect,0.375000X-0.375000X0.625000X-0.375000X-0.625000X0.375000X-0.625000X0.375000X0.625000X0*%
%ADD21RoundRect,0.500000X-1.400000X0.500000X-1.400000X-0.500000X1.400000X-0.500000X1.400000X0.500000X0*%
%ADD22C,2.000000*%
%ADD23R,1.050000X1.500000*%
%ADD24O,1.050000X1.500000*%
%ADD25C,1.600000*%
%ADD26R,0.900000X1.500000*%
%ADD27R,1.500000X0.900000*%
%ADD28C,0.600000*%
%ADD29R,3.900000X3.900000*%
%ADD30RoundRect,0.175000X0.325000X-0.175000X0.325000X0.175000X-0.325000X0.175000X-0.325000X-0.175000X0*%
%ADD31RoundRect,0.150000X0.150000X-0.200000X0.150000X0.200000X-0.150000X0.200000X-0.150000X-0.200000X0*%
%ADD32RoundRect,0.250000X-0.250000X-3.150000X0.250000X-3.150000X0.250000X3.150000X-0.250000X3.150000X0*%
%ADD33C,1.500000*%
%ADD34R,1.380000X0.450000*%
%ADD35R,1.300000X1.650000*%
%ADD36R,1.550000X1.425000*%
%ADD37R,1.900000X1.800000*%
%ADD38R,1.900000X1.000000*%
G04 APERTURE END LIST*
D10*
%TO.C,R14*%
X143200000Y-39700000D03*
D11*
X143200000Y-52400000D03*
%TD*%
D12*
%TO.C,D1*%
X140625000Y-33900000D03*
D13*
X143165000Y-33900000D03*
%TD*%
D14*
%TO.C,J9*%
X154550000Y-32125000D03*
D15*
X152010000Y-32125000D03*
%TD*%
D10*
%TO.C,R13*%
X130400000Y-67000000D03*
D11*
X130400000Y-54300000D03*
%TD*%
D14*
%TO.C,J8*%
X195260000Y-32000000D03*
D15*
X197800000Y-32000000D03*
%TD*%
D14*
%TO.C,J1*%
X183100000Y-89400000D03*
D15*
X185640000Y-89400000D03*
X188180000Y-89400000D03*
X190720000Y-89400000D03*
%TD*%
D16*
%TO.C,C6*%
X154900000Y-74500000D03*
D17*
X156900000Y-74500000D03*
%TD*%
D18*
%TO.C,U2*%
X153725000Y-61450000D03*
X153725000Y-61950000D03*
X153725000Y-62450000D03*
X153725000Y-62950000D03*
X153725000Y-63450000D03*
X153725000Y-63950000D03*
X153725000Y-64450000D03*
X153725000Y-64950000D03*
X153725000Y-65450000D03*
X153725000Y-65950000D03*
X153725000Y-66450000D03*
X153725000Y-66950000D03*
X153725000Y-67450000D03*
X153725000Y-67950000D03*
X153725000Y-68450000D03*
X153725000Y-68950000D03*
D19*
X155650000Y-70875000D03*
X156150000Y-70875000D03*
X156650000Y-70875000D03*
X157150000Y-70875000D03*
X157650000Y-70875000D03*
X158150000Y-70875000D03*
X158650000Y-70875000D03*
X159150000Y-70875000D03*
X159650000Y-70875000D03*
X160150000Y-70875000D03*
X160650000Y-70875000D03*
X161150000Y-70875000D03*
X161650000Y-70875000D03*
X162150000Y-70875000D03*
X162650000Y-70875000D03*
X163150000Y-70875000D03*
D18*
X165075000Y-68950000D03*
X165075000Y-68450000D03*
X165075000Y-67950000D03*
X165075000Y-67450000D03*
X165075000Y-66950000D03*
X165075000Y-66450000D03*
X165075000Y-65950000D03*
X165075000Y-65450000D03*
X165075000Y-64950000D03*
X165075000Y-64450000D03*
X165075000Y-63950000D03*
X165075000Y-63450000D03*
X165075000Y-62950000D03*
X165075000Y-62450000D03*
X165075000Y-61950000D03*
X165075000Y-61450000D03*
D19*
X163150000Y-59525000D03*
X162650000Y-59525000D03*
X162150000Y-59525000D03*
X161650000Y-59525000D03*
X161150000Y-59525000D03*
X160650000Y-59525000D03*
X160150000Y-59525000D03*
X159650000Y-59525000D03*
X159150000Y-59525000D03*
X158650000Y-59525000D03*
X158150000Y-59525000D03*
X157650000Y-59525000D03*
X157150000Y-59525000D03*
X156650000Y-59525000D03*
X156150000Y-59525000D03*
X155650000Y-59525000D03*
%TD*%
D20*
%TO.C,U3*%
X126300000Y-56850000D03*
X124000000Y-56850000D03*
D21*
X124000000Y-63150000D03*
D20*
X121700000Y-56850000D03*
%TD*%
D22*
%TO.C,SW3*%
X130050000Y-32150000D03*
X136550000Y-32150000D03*
X130050000Y-36650000D03*
X136550000Y-36650000D03*
%TD*%
D14*
%TO.C,J2*%
X105520000Y-89400000D03*
D15*
X108060000Y-89400000D03*
X110600000Y-89400000D03*
X113140000Y-89400000D03*
%TD*%
D23*
%TO.C,Q2*%
X173260000Y-36200000D03*
D24*
X171990000Y-36200000D03*
X170720000Y-36200000D03*
%TD*%
D22*
%TO.C,SW1*%
X214150000Y-37450000D03*
X207650000Y-37450000D03*
X214150000Y-32950000D03*
X207650000Y-32950000D03*
%TD*%
D23*
%TO.C,Q3*%
X167720000Y-36200000D03*
D24*
X166450000Y-36200000D03*
X165180000Y-36200000D03*
%TD*%
D10*
%TO.C,R5*%
X166720000Y-53850000D03*
D11*
X166720000Y-41150000D03*
%TD*%
D25*
%TO.C,C3*%
X150600000Y-62400000D03*
X150600000Y-59900000D03*
%TD*%
D23*
%TO.C,Q4*%
X162220000Y-36200000D03*
D24*
X160950000Y-36200000D03*
X159680000Y-36200000D03*
%TD*%
D10*
%TO.C,R11*%
X126250000Y-52500000D03*
D11*
X113550000Y-52500000D03*
%TD*%
D10*
%TO.C,R4*%
X171920000Y-53800000D03*
D11*
X171920000Y-41100000D03*
%TD*%
D17*
%TO.C,C12*%
X188500000Y-59400000D03*
D16*
X186500000Y-59400000D03*
%TD*%
D17*
%TO.C,C9*%
X155600000Y-56200000D03*
D16*
X155600000Y-54200000D03*
%TD*%
D14*
%TO.C,J3*%
X146100000Y-89500000D03*
D15*
X143560000Y-89500000D03*
X141020000Y-89500000D03*
X138480000Y-89500000D03*
X135940000Y-89500000D03*
X133400000Y-89500000D03*
%TD*%
D17*
%TO.C,C7*%
X163572600Y-74400000D03*
D16*
X161572600Y-74400000D03*
%TD*%
D23*
%TO.C,Q6*%
X185285000Y-36025000D03*
D24*
X184015000Y-36025000D03*
X182745000Y-36025000D03*
%TD*%
D10*
%TO.C,R12*%
X113550000Y-47900000D03*
D11*
X126250000Y-47900000D03*
%TD*%
D10*
%TO.C,R7*%
X189500000Y-53850000D03*
D11*
X189500000Y-41150000D03*
%TD*%
D26*
%TO.C,U4*%
X193220000Y-62950000D03*
X191950000Y-62950000D03*
X190680000Y-62950000D03*
X189410000Y-62950000D03*
X188140000Y-62950000D03*
X186870000Y-62950000D03*
X185600000Y-62950000D03*
X184330000Y-62950000D03*
X183060000Y-62950000D03*
X181790000Y-62950000D03*
X180520000Y-62950000D03*
X179250000Y-62950000D03*
X177980000Y-62950000D03*
X176710000Y-62950000D03*
D27*
X175460000Y-64715000D03*
X175460000Y-65985000D03*
X175460000Y-67255000D03*
X175460000Y-68525000D03*
X175460000Y-69795000D03*
X175460000Y-71065000D03*
X175460000Y-72335000D03*
X175460000Y-73605000D03*
X175460000Y-74875000D03*
X175460000Y-76145000D03*
X175460000Y-77415000D03*
X175460000Y-78685000D03*
D26*
X176710000Y-80450000D03*
X177980000Y-80450000D03*
X179250000Y-80450000D03*
X180520000Y-80450000D03*
X181790000Y-80450000D03*
X183060000Y-80450000D03*
X184330000Y-80450000D03*
X185600000Y-80450000D03*
X186870000Y-80450000D03*
X188140000Y-80450000D03*
X189410000Y-80450000D03*
X190680000Y-80450000D03*
X191950000Y-80450000D03*
X193220000Y-80450000D03*
D28*
X186200000Y-68800000D03*
X184800000Y-68800000D03*
X186900000Y-69500000D03*
X185500000Y-69500000D03*
X184100000Y-69500000D03*
X186200000Y-70200000D03*
D29*
X185500000Y-70200000D03*
D28*
X184800000Y-70200000D03*
X186900000Y-70900000D03*
X185500000Y-70900000D03*
X184100000Y-70900000D03*
X186200000Y-71600000D03*
X184800000Y-71600000D03*
%TD*%
D11*
%TO.C,R2*%
X128500000Y-43300000D03*
D10*
X115800000Y-43300000D03*
%TD*%
D14*
%TO.C,J5*%
X178160000Y-32200000D03*
D15*
X175620000Y-32200000D03*
X173080000Y-32200000D03*
X170540000Y-32200000D03*
X168000000Y-32200000D03*
X165460000Y-32200000D03*
X162920000Y-32200000D03*
X160380000Y-32200000D03*
%TD*%
D23*
%TO.C,Q5*%
X190915000Y-36025000D03*
D24*
X189645000Y-36025000D03*
X188375000Y-36025000D03*
%TD*%
D10*
%TO.C,R3*%
X177260000Y-53850000D03*
D11*
X177260000Y-41150000D03*
%TD*%
D10*
%TO.C,R8*%
X183900000Y-53750000D03*
D11*
X183900000Y-41050000D03*
%TD*%
D30*
%TO.C,U1*%
X203050000Y-36850000D03*
D31*
X204750000Y-36850000D03*
X204750000Y-34850000D03*
X202850000Y-34850000D03*
%TD*%
D10*
%TO.C,R10*%
X113700000Y-60150000D03*
D11*
X113700000Y-72850000D03*
%TD*%
D25*
%TO.C,C4*%
X146000000Y-65000000D03*
X146000000Y-67500000D03*
%TD*%
D17*
%TO.C,C13*%
X191200000Y-59400000D03*
D16*
X193200000Y-59400000D03*
%TD*%
D17*
%TO.C,C1*%
X146200000Y-70000000D03*
D16*
X146200000Y-72000000D03*
%TD*%
D32*
%TO.C,SW2*%
X112900000Y-37400000D03*
X115900000Y-37400000D03*
X118900000Y-37400000D03*
%TD*%
D17*
%TO.C,C11*%
X126772600Y-66900000D03*
D16*
X124772600Y-66900000D03*
%TD*%
D17*
%TO.C,C2*%
X149900000Y-69172600D03*
D16*
X149900000Y-67172600D03*
%TD*%
D33*
%TO.C,Y1*%
X139600000Y-61250000D03*
X139600000Y-66130000D03*
%TD*%
D17*
%TO.C,C5*%
X152272600Y-74500000D03*
D16*
X150272600Y-74500000D03*
%TD*%
D14*
%TO.C,J6*%
X189440000Y-32100000D03*
D15*
X186900000Y-32100000D03*
X184360000Y-32100000D03*
%TD*%
D10*
%TO.C,R1*%
X207450000Y-41200000D03*
D11*
X194750000Y-41200000D03*
%TD*%
D10*
%TO.C,R9*%
X109100000Y-60150000D03*
D11*
X109100000Y-72850000D03*
%TD*%
D34*
%TO.C,J7*%
X105035000Y-59300000D03*
X105035000Y-59950000D03*
X105035000Y-60600000D03*
X105035000Y-61250000D03*
X105035000Y-61900000D03*
D35*
X102375000Y-57225000D03*
D36*
X104950000Y-58112500D03*
D37*
X102375000Y-59450000D03*
D38*
X102375000Y-62150000D03*
D36*
X104950000Y-63087500D03*
D35*
X102375000Y-63975000D03*
%TD*%
D10*
%TO.C,R6*%
X161020000Y-53650000D03*
D11*
X161020000Y-40950000D03*
%TD*%
D17*
%TO.C,C8*%
X168600000Y-61500000D03*
D16*
X168600000Y-63500000D03*
%TD*%
D17*
%TO.C,C10*%
X118000000Y-56777401D03*
D16*
X118000000Y-58277401D03*
%TD*%
D23*
%TO.C,Q1*%
X178760000Y-36200000D03*
D24*
X177490000Y-36200000D03*
X176220000Y-36200000D03*
%TD*%
D22*
%TO.C,SW4*%
X178950000Y-89750000D03*
X172450000Y-89750000D03*
X178950000Y-85250000D03*
X172450000Y-85250000D03*
%TD*%
D14*
%TO.C,J4*%
X167220000Y-78900000D03*
D15*
X164680000Y-78900000D03*
X162140000Y-78900000D03*
X159600000Y-78900000D03*
X157060000Y-78900000D03*
%TD*%
M02*
