M48
; DRILL file {KiCad 8.0.3} date 2025-10-31T10:35:21+0300
; FORMAT={-:-/ absolute / inch / decimal}
; #@! TF.CreationDate,2025-10-31T10:35:21+03:00
; #@! TF.GenerationSoftware,Kicad,Pcbnew,8.0.3
; #@! TF.FileFunction,Plated,1,2,PTH
FMAT,2
INCH
; #@! TA.AperFunction,Plated,PTH,ComponentDrill
T1C0.0079
; #@! TA.AperFunction,Plated,PTH,ViaDrill
T2C0.0118
; #@! TA.AperFunction,Plated,PTH,ComponentDrill
T3C0.0236
; #@! TA.AperFunction,Plated,PTH,ComponentDrill
T4C0.0295
; #@! TA.AperFunction,Plated,PTH,ComponentDrill
T5C0.0315
; #@! TA.AperFunction,Plated,PTH,ComponentDrill
T6C0.0354
; #@! TA.AperFunction,Plated,PTH,ComponentDrill
T7C0.0394
; #@! TA.AperFunction,Plated,PTH,ComponentDrill
T8C0.0433
; #@! TA.AperFunction,Plated,PTH,ComponentDrill
T9C0.0472
%
G90
G05
T1
X7.248Y-2.7362
X7.248Y-2.7913
X7.2756Y-2.7087
X7.2756Y-2.7638
X7.2756Y-2.8189
X7.3031Y-2.7362
X7.3031Y-2.7913
X7.3307Y-2.7087
X7.3307Y-2.7638
X7.3307Y-2.8189
X7.3583Y-2.7362
X7.3583Y-2.7913
T2
X4.1929Y-2.2879
X4.1929Y-2.4843
X4.4449Y-1.6654
X4.7913Y-2.7874
X4.8031Y-2.8701
X5.2874Y-2.2835
X5.5Y-1.7047
X5.5335Y-1.8681
X5.6154Y-2.872
X5.635Y-2.8976
X5.748Y-1.7047
X5.8583Y-2.5433
X5.9673Y-2.6134
X5.9941Y-2.6299
X6.0Y-2.2126
X6.2244Y-3.0354
X6.252Y-3.0118
X6.311Y-2.9291
X6.3228Y-3.0079
X6.3307Y-2.8575
X6.3642Y-2.8602
X6.6024Y-2.6614
X6.6807Y-2.7642
X6.6831Y-2.6929
X6.685Y-2.6142
X6.9567Y-3.2146
X7.5079Y-2.4134
X7.6063Y-2.4173
X7.6063Y-3.2283
X7.9921Y-1.5
T3
X4.6457Y-2.2353
X4.6457Y-2.2944
X4.9123Y-2.6339
X4.991Y-2.6339
X5.7559Y-2.7559
X5.7559Y-2.8346
X5.9016Y-2.6446
X5.9016Y-2.7233
X5.9162Y-2.9331
X5.995Y-2.9331
X6.0984Y-2.9331
X6.126Y-2.1339
X6.126Y-2.2126
X6.1772Y-2.9331
X6.3611Y-2.9291
X6.4399Y-2.9291
X6.6378Y-2.4213
X6.6378Y-2.5
X7.3425Y-2.3386
X7.4213Y-2.3386
X7.5276Y-2.3386
X7.6063Y-2.3386
T4
X6.2866Y-1.4252
X6.3366Y-1.4252
X6.3866Y-1.4252
X6.5031Y-1.4252
X6.5531Y-1.4252
X6.6031Y-1.4252
X6.7213Y-1.4252
X6.7713Y-1.4252
X6.8213Y-1.4252
X6.9378Y-1.4252
X6.9878Y-1.4252
X7.0378Y-1.4252
X7.1947Y-1.4183
X7.2447Y-1.4183
X7.2947Y-1.4183
X7.4163Y-1.4183
X7.4663Y-1.4183
X7.5163Y-1.4183
T5
X5.4961Y-2.4114
X5.4961Y-2.6035
X5.748Y-2.5591
X5.748Y-2.6575
X5.9291Y-2.3583
X5.9291Y-2.4567
T6
X5.5364Y-1.3346
X5.6364Y-1.3346
T7
X4.1543Y-3.5197
X4.2543Y-3.5197
X4.3543Y-3.5197
X4.4543Y-3.5197
X5.252Y-3.5236
X5.352Y-3.5236
X5.452Y-3.5236
X5.552Y-3.5236
X5.652Y-3.5236
X5.752Y-3.5236
X5.9846Y-1.2648
X6.0846Y-1.2648
X6.1835Y-3.1063
X6.2835Y-3.1063
X6.3142Y-1.2677
X6.3835Y-3.1063
X6.4142Y-1.2677
X6.4835Y-3.1063
X6.5142Y-1.2677
X6.5835Y-3.1063
X6.6142Y-1.2677
X6.7142Y-1.2677
X6.8142Y-1.2677
X6.9142Y-1.2677
X7.0142Y-1.2677
X7.2087Y-3.5197
X7.2583Y-1.2638
X7.3087Y-3.5197
X7.3583Y-1.2638
X7.4087Y-3.5197
X7.4583Y-1.2638
X7.5087Y-3.5197
X7.6874Y-1.2598
X7.7874Y-1.2598
T8
X5.1201Y-1.2657
X5.1201Y-1.4429
X5.376Y-1.2657
X5.376Y-1.4429
X6.7894Y-3.3563
X6.7894Y-3.5335
X7.0453Y-3.3563
X7.0453Y-3.5335
X8.1752Y-1.2972
X8.1752Y-1.4744
X8.4311Y-1.2972
X8.4311Y-1.4744
T9
X4.2953Y-2.3681
X4.2953Y-2.8681
X4.4705Y-1.8858
X4.4705Y-2.0669
X4.4764Y-2.3681
X4.4764Y-2.8681
X4.5591Y-1.7047
X4.9705Y-1.8858
X4.9705Y-2.0669
X5.0591Y-1.7047
X5.1339Y-2.1378
X5.1339Y-2.6378
X5.6378Y-1.563
X5.6378Y-2.063
X6.3394Y-1.6122
X6.3394Y-2.1122
X6.5638Y-1.6201
X6.5638Y-2.1201
X6.7685Y-1.6181
X6.7685Y-2.1181
X6.9787Y-1.6201
X6.9787Y-2.1201
X7.2402Y-1.6161
X7.2402Y-2.1161
X7.4606Y-1.6201
X7.4606Y-2.1201
X7.6673Y-1.622
X8.1673Y-1.622
M30
